<svg xmlns="http://www.w3.org/2000/svg" xmlns:xlink="http://www.w3.org/1999/xlink" aria-hidden="true" role="img" class="iconify iconify--logos" width="31.88" height="32" preserveAspectRatio="xMidYMid meet" viewBox="0 0 256 257"><defs><linearGradient id="IconifyId6876082435338483" x1="-.828%" x2="57.636%" y1="7.751%" y2="78.413%"><stop offset="0%" stop-color="#41D1FF"></stop><stop offset="100%" stop-color="#BD34FE"></stop></linearGradient><linearGradient id="IconifyId6876082435338484" x1="43.376%" x2="50.316%" y1="2.242%" y2="89.03%"><stop offset="0%" stop-color="#FFBD4F"></stop><stop offset="100%" stop-color="#FF980E"></stop></linearGradient></defs><path fill="url(#IconifyId6876082435338483)" d="M255.153 37.938L134.897 252.976c-2.483 4.44-8.862 4.466-11.382.048L.875 37.958c-2.742-4.814 1.371-10.646 6.827-9.67l120.085 21.517a6.537 6.537 0 0 0 2.322-.004l117.666-21.48c5.438-.992 9.587 4.796 6.848 9.617Z"></path><path fill="url(#IconifyId6876082435338484)" d="M185.43 26.937c.476 1.574-.689 3.175-2.456 3.175H72.051c-1.79 0-2.955-1.633-2.46-3.216l23.515-76.169c.497-1.607 2.162-2.696 3.89-2.696h60.93c1.747 0 3.419 1.107 3.892 2.722l23.612 76.184Z"></path></svg>
